<mxfile host="Electron" agent="Mozilla/5.0 (Macintosh; Intel Mac OS X 10_15_7) AppleWebKit/537.36 (KHTML, like Gecko) draw.io/24.7.8 Chrome/128.0.6613.36 Electron/32.0.1 Safari/537.36" version="24.7.8" pages="6">
  <diagram name="esquema1" id="zOWADQw8I1MoTfmsGtOU">
    <mxGraphModel dx="1420" dy="2062" grid="1" gridSize="10" guides="1" tooltips="1" connect="1" arrows="1" fold="1" page="1" pageScale="1" pageWidth="827" pageHeight="1169" math="0" shadow="0">
      <root>
        <mxCell id="Gmu17bHJ3XQl9rSOuAfM-0" />
        <mxCell id="Gmu17bHJ3XQl9rSOuAfM-1" parent="Gmu17bHJ3XQl9rSOuAfM-0" />
        <mxCell id="Gmu17bHJ3XQl9rSOuAfM-9" value="" style="rounded=0;whiteSpace=wrap;html=1;fillColor=none;strokeWidth=3;fontSize=20;fontColor=#ffffff;strokeColor=#B20000;" vertex="1" parent="Gmu17bHJ3XQl9rSOuAfM-1">
          <mxGeometry x="280" y="30" width="370" height="240" as="geometry" />
        </mxCell>
        <mxCell id="uu10YLED7xEaxFpM3lo1-10" value="" style="shape=flexArrow;endArrow=classic;startArrow=classic;html=1;rounded=0;entryX=0.527;entryY=1;entryDx=0;entryDy=0;entryPerimeter=0;fillColor=#e51400;strokeColor=#B20000;" edge="1" parent="Gmu17bHJ3XQl9rSOuAfM-1" source="Gmu17bHJ3XQl9rSOuAfM-4" target="Gmu17bHJ3XQl9rSOuAfM-19">
          <mxGeometry width="100" height="100" relative="1" as="geometry">
            <mxPoint x="350" y="200" as="sourcePoint" />
            <mxPoint x="450" y="100" as="targetPoint" />
          </mxGeometry>
        </mxCell>
        <mxCell id="Gmu17bHJ3XQl9rSOuAfM-2" value="" style="rounded=0;whiteSpace=wrap;html=1;fillColor=none;strokeWidth=3;fontSize=20;fontColor=#000000;strokeColor=#B09500;" vertex="1" parent="Gmu17bHJ3XQl9rSOuAfM-1">
          <mxGeometry x="270" y="280" width="410" height="90" as="geometry" />
        </mxCell>
        <mxCell id="Gmu17bHJ3XQl9rSOuAfM-3" value="Discs" style="sketch=0;pointerEvents=1;shadow=0;dashed=0;html=1;strokeColor=none;fillColor=#434445;aspect=fixed;labelPosition=center;verticalLabelPosition=bottom;verticalAlign=top;align=center;outlineConnect=0;shape=mxgraph.vvd.disk;fontSize=20;" vertex="1" parent="Gmu17bHJ3XQl9rSOuAfM-1">
          <mxGeometry x="310" y="288" width="35" height="50" as="geometry" />
        </mxCell>
        <mxCell id="Gmu17bHJ3XQl9rSOuAfM-4" value="Processadors" style="sketch=0;pointerEvents=1;shadow=0;dashed=0;html=1;strokeColor=none;fillColor=#434445;aspect=fixed;labelPosition=center;verticalLabelPosition=bottom;verticalAlign=top;align=center;outlineConnect=0;shape=mxgraph.vvd.cpu;fontSize=20;" vertex="1" parent="Gmu17bHJ3XQl9rSOuAfM-1">
          <mxGeometry x="453.75" y="288" width="50" height="50" as="geometry" />
        </mxCell>
        <mxCell id="Gmu17bHJ3XQl9rSOuAfM-5" value="Xarxa" style="image;html=1;image=img/lib/clip_art/computers/Network_2_128x128.png;fontSize=20;" vertex="1" parent="Gmu17bHJ3XQl9rSOuAfM-1">
          <mxGeometry x="600" y="288" width="50" height="50" as="geometry" />
        </mxCell>
        <mxCell id="Gmu17bHJ3XQl9rSOuAfM-6" value="Hardware" style="text;html=1;strokeColor=none;fillColor=none;align=center;verticalAlign=middle;whiteSpace=wrap;rounded=0;rotation=-90;fontSize=20;fontColor=#b09500;" vertex="1" parent="Gmu17bHJ3XQl9rSOuAfM-1">
          <mxGeometry x="205" y="310" width="85" height="30" as="geometry" />
        </mxCell>
        <mxCell id="Gmu17bHJ3XQl9rSOuAfM-7" value="" style="rounded=0;whiteSpace=wrap;html=1;fillColor=none;strokeWidth=3;fontSize=20;fontColor=#ffffff;strokeColor=#001DBC;" vertex="1" parent="Gmu17bHJ3XQl9rSOuAfM-1">
          <mxGeometry x="270" y="-130" width="410" height="410" as="geometry" />
        </mxCell>
        <mxCell id="Gmu17bHJ3XQl9rSOuAfM-8" value="Software" style="text;html=1;strokeColor=none;fillColor=none;align=center;verticalAlign=middle;whiteSpace=wrap;rounded=0;rotation=-90;fontSize=20;fontColor=#231ebc;" vertex="1" parent="Gmu17bHJ3XQl9rSOuAfM-1">
          <mxGeometry x="205" y="20" width="85" height="30" as="geometry" />
        </mxCell>
        <mxCell id="Gmu17bHJ3XQl9rSOuAfM-10" value="Kernel" style="text;html=1;strokeColor=none;fillColor=none;align=center;verticalAlign=middle;whiteSpace=wrap;rounded=0;rotation=-90;fontSize=20;fontColor=#b20400;" vertex="1" parent="Gmu17bHJ3XQl9rSOuAfM-1">
          <mxGeometry x="620" y="140" width="85" height="30" as="geometry" />
        </mxCell>
        <mxCell id="Gmu17bHJ3XQl9rSOuAfM-18" value="Usuari" style="text;html=1;strokeColor=none;fillColor=none;align=center;verticalAlign=middle;whiteSpace=wrap;rounded=0;rotation=-90;fontSize=20;fontColor=#165700;" vertex="1" parent="Gmu17bHJ3XQl9rSOuAfM-1">
          <mxGeometry x="620" y="-90" width="85" height="30" as="geometry" />
        </mxCell>
        <mxCell id="Gmu17bHJ3XQl9rSOuAfM-19" value="" style="rounded=0;whiteSpace=wrap;html=1;fillColor=none;strokeWidth=3;fontSize=20;fontColor=#ffffff;strokeColor=#005700;" vertex="1" parent="Gmu17bHJ3XQl9rSOuAfM-1">
          <mxGeometry x="280" y="-120" width="370" height="140" as="geometry" />
        </mxCell>
        <mxCell id="Gmu17bHJ3XQl9rSOuAfM-20" value="Aplicació" style="rounded=0;whiteSpace=wrap;html=1;fillColor=#60a917;fontColor=#ffffff;strokeColor=#2D7600;fontSize=20;" vertex="1" parent="Gmu17bHJ3XQl9rSOuAfM-1">
          <mxGeometry x="520" y="-90" width="120" height="40" as="geometry" />
        </mxCell>
        <mxCell id="Gmu17bHJ3XQl9rSOuAfM-21" value="Llibreria del Sistema" style="rounded=0;whiteSpace=wrap;html=1;fillColor=#60a917;fontColor=#ffffff;strokeColor=#2D7600;fontSize=20;" vertex="1" parent="Gmu17bHJ3XQl9rSOuAfM-1">
          <mxGeometry x="520" y="-50" width="120" height="60" as="geometry" />
        </mxCell>
        <mxCell id="Gmu17bHJ3XQl9rSOuAfM-22" value="Client de correu" style="rounded=1;whiteSpace=wrap;html=1;fillColor=#d5e8d4;strokeColor=#82b366;fontSize=20;" vertex="1" parent="Gmu17bHJ3XQl9rSOuAfM-1">
          <mxGeometry x="290" y="-110" width="100" height="60" as="geometry" />
        </mxCell>
        <mxCell id="Gmu17bHJ3XQl9rSOuAfM-23" value="Navegador" style="rounded=1;whiteSpace=wrap;html=1;fillColor=#d5e8d4;strokeColor=#82b366;fontSize=20;" vertex="1" parent="Gmu17bHJ3XQl9rSOuAfM-1">
          <mxGeometry x="393.75" y="-102.5" width="110" height="45" as="geometry" />
        </mxCell>
        <mxCell id="Gmu17bHJ3XQl9rSOuAfM-24" value="Reproductor músical" style="rounded=1;whiteSpace=wrap;html=1;fillColor=#d5e8d4;strokeColor=#82b366;fontSize=20;" vertex="1" parent="Gmu17bHJ3XQl9rSOuAfM-1">
          <mxGeometry x="370" y="-40" width="120" height="53" as="geometry" />
        </mxCell>
        <mxCell id="Gmu17bHJ3XQl9rSOuAfM-25" value="Shell" style="rounded=1;whiteSpace=wrap;html=1;fillColor=#d5e8d4;strokeColor=#82b366;fontSize=20;" vertex="1" parent="Gmu17bHJ3XQl9rSOuAfM-1">
          <mxGeometry x="290" y="-33" width="70" height="33" as="geometry" />
        </mxCell>
        <mxCell id="uu10YLED7xEaxFpM3lo1-7" value="TRANSPARENCIA" style="shape=offPageConnector;whiteSpace=wrap;html=1;rotation=-90;fontSize=20;fillColor=#fad9d5;strokeColor=#ae4132;" vertex="1" parent="Gmu17bHJ3XQl9rSOuAfM-1">
          <mxGeometry x="250" y="110" width="230" height="80" as="geometry" />
        </mxCell>
        <mxCell id="uu10YLED7xEaxFpM3lo1-8" value="PORTABILITAT" style="shape=offPageConnector;whiteSpace=wrap;html=1;rotation=90;fontSize=20;fillColor=#fad9d5;strokeColor=#ae4132;" vertex="1" parent="Gmu17bHJ3XQl9rSOuAfM-1">
          <mxGeometry x="483.41" y="109.95" width="226.65" height="79.68" as="geometry" />
        </mxCell>
        <mxCell id="uu10YLED7xEaxFpM3lo1-9" value="GESTIÓ EFICIENT" style="shape=offPageConnector;whiteSpace=wrap;html=1;rotation=0;fontSize=20;fillColor=#fad9d5;strokeColor=#ae4132;" vertex="1" parent="Gmu17bHJ3XQl9rSOuAfM-1">
          <mxGeometry x="393.75" y="120" width="170" height="80" as="geometry" />
        </mxCell>
      </root>
    </mxGraphModel>
  </diagram>
  <diagram name="esquema2" id="xPvUstEe_b_W7fYeM64c">
    <mxGraphModel dx="1420" dy="2062" grid="1" gridSize="10" guides="1" tooltips="1" connect="1" arrows="1" fold="1" page="1" pageScale="1" pageWidth="827" pageHeight="1169" math="0" shadow="0">
      <root>
        <mxCell id="0" />
        <mxCell id="1" parent="0" />
        <mxCell id="lcPfN1VdlQ4DA5JSOHc2-13" value="" style="rounded=0;whiteSpace=wrap;html=1;fillColor=none;strokeWidth=3;fontSize=20;fontColor=#000000;strokeColor=#B09500;" vertex="1" parent="1">
          <mxGeometry x="270" y="280" width="410" height="90" as="geometry" />
        </mxCell>
        <mxCell id="lcPfN1VdlQ4DA5JSOHc2-6" value="Discs" style="sketch=0;pointerEvents=1;shadow=0;dashed=0;html=1;strokeColor=none;fillColor=#434445;aspect=fixed;labelPosition=center;verticalLabelPosition=bottom;verticalAlign=top;align=center;outlineConnect=0;shape=mxgraph.vvd.disk;fontSize=20;" vertex="1" parent="1">
          <mxGeometry x="310" y="288" width="35" height="50" as="geometry" />
        </mxCell>
        <mxCell id="lcPfN1VdlQ4DA5JSOHc2-7" value="Processadors" style="sketch=0;pointerEvents=1;shadow=0;dashed=0;html=1;strokeColor=none;fillColor=#434445;aspect=fixed;labelPosition=center;verticalLabelPosition=bottom;verticalAlign=top;align=center;outlineConnect=0;shape=mxgraph.vvd.cpu;fontSize=20;" vertex="1" parent="1">
          <mxGeometry x="453.75" y="288" width="50" height="50" as="geometry" />
        </mxCell>
        <mxCell id="lcPfN1VdlQ4DA5JSOHc2-11" value="Xarxa" style="image;html=1;image=img/lib/clip_art/computers/Network_2_128x128.png;fontSize=20;" vertex="1" parent="1">
          <mxGeometry x="600" y="288" width="50" height="50" as="geometry" />
        </mxCell>
        <mxCell id="lcPfN1VdlQ4DA5JSOHc2-14" value="Hardware" style="text;html=1;strokeColor=none;fillColor=none;align=center;verticalAlign=middle;whiteSpace=wrap;rounded=0;rotation=-90;fontSize=20;fontColor=#b09500;" vertex="1" parent="1">
          <mxGeometry x="205" y="310" width="85" height="30" as="geometry" />
        </mxCell>
        <mxCell id="lcPfN1VdlQ4DA5JSOHc2-15" value="" style="rounded=0;whiteSpace=wrap;html=1;fillColor=none;strokeWidth=3;fontSize=20;fontColor=#ffffff;strokeColor=#001DBC;" vertex="1" parent="1">
          <mxGeometry x="270" y="-130" width="410" height="410" as="geometry" />
        </mxCell>
        <mxCell id="lcPfN1VdlQ4DA5JSOHc2-16" value="Software" style="text;html=1;strokeColor=none;fillColor=none;align=center;verticalAlign=middle;whiteSpace=wrap;rounded=0;rotation=-90;fontSize=20;fontColor=#231ebc;" vertex="1" parent="1">
          <mxGeometry x="205" y="20" width="85" height="30" as="geometry" />
        </mxCell>
        <mxCell id="lcPfN1VdlQ4DA5JSOHc2-18" value="" style="rounded=0;whiteSpace=wrap;html=1;fillColor=none;strokeWidth=3;fontSize=20;fontColor=#ffffff;strokeColor=#B20000;" vertex="1" parent="1">
          <mxGeometry x="280" y="30" width="370" height="240" as="geometry" />
        </mxCell>
        <mxCell id="lcPfN1VdlQ4DA5JSOHc2-19" value="Kernel" style="text;html=1;strokeColor=none;fillColor=none;align=center;verticalAlign=middle;whiteSpace=wrap;rounded=0;rotation=-90;fontSize=20;fontColor=#b20400;" vertex="1" parent="1">
          <mxGeometry x="620" y="140" width="85" height="30" as="geometry" />
        </mxCell>
        <mxCell id="lcPfN1VdlQ4DA5JSOHc2-20" value="&lt;div style=&quot;font-size: 20px;&quot;&gt;Capa d&#39;abstracció de maquinari&lt;/div&gt;" style="rounded=0;whiteSpace=wrap;html=1;fillColor=#dae8fc;strokeWidth=3;strokeColor=#6c8ebf;verticalAlign=top;fontSize=20;" vertex="1" parent="1">
          <mxGeometry x="290" y="162" width="350" height="100" as="geometry" />
        </mxCell>
        <mxCell id="lcPfN1VdlQ4DA5JSOHc2-22" value="Programari i controladors de dispositiu específics de maquinari" style="rounded=1;whiteSpace=wrap;html=1;fillColor=#1ba1e2;fontColor=#ffffff;strokeColor=#006EAF;fontSize=20;" vertex="1" parent="1">
          <mxGeometry x="300" y="200" width="330" height="52" as="geometry" />
        </mxCell>
        <mxCell id="lcPfN1VdlQ4DA5JSOHc2-23" value="&lt;div style=&quot;font-size: 20px;&quot;&gt;Interfície d&#39;usuari del Kernel&lt;/div&gt;" style="rounded=0;whiteSpace=wrap;html=1;fillColor=#ffe6cc;strokeWidth=3;strokeColor=#d79b00;verticalAlign=top;fontSize=20;" vertex="1" parent="1">
          <mxGeometry x="290" y="40" width="350" height="120" as="geometry" />
        </mxCell>
        <mxCell id="lcPfN1VdlQ4DA5JSOHc2-24" value="Sistema de fitxers" style="rounded=1;whiteSpace=wrap;html=1;fillColor=#f0a30a;fontColor=#000000;strokeColor=#BD7000;fontSize=20;" vertex="1" parent="1">
          <mxGeometry x="300" y="74" width="190" height="36" as="geometry" />
        </mxCell>
        <mxCell id="lcPfN1VdlQ4DA5JSOHc2-25" value="Memòria Virtual" style="rounded=1;whiteSpace=wrap;html=1;fillColor=#f0a30a;fontColor=#000000;strokeColor=#BD7000;fontSize=20;" vertex="1" parent="1">
          <mxGeometry x="300" y="115" width="190" height="36" as="geometry" />
        </mxCell>
        <mxCell id="lcPfN1VdlQ4DA5JSOHc2-26" value="Planificador" style="rounded=1;whiteSpace=wrap;html=1;fillColor=#f0a30a;fontColor=#000000;strokeColor=#BD7000;fontSize=20;" vertex="1" parent="1">
          <mxGeometry x="500" y="74" width="130" height="36" as="geometry" />
        </mxCell>
        <mxCell id="lcPfN1VdlQ4DA5JSOHc2-27" value="TCP/IP" style="rounded=1;whiteSpace=wrap;html=1;fillColor=#f0a30a;fontColor=#000000;strokeColor=#BD7000;fontSize=20;" vertex="1" parent="1">
          <mxGeometry x="500" y="115" width="130" height="36" as="geometry" />
        </mxCell>
        <mxCell id="lcPfN1VdlQ4DA5JSOHc2-28" value="Usuari" style="text;html=1;strokeColor=none;fillColor=none;align=center;verticalAlign=middle;whiteSpace=wrap;rounded=0;rotation=-90;fontSize=20;fontColor=#165700;" vertex="1" parent="1">
          <mxGeometry x="620" y="-90" width="85" height="30" as="geometry" />
        </mxCell>
        <mxCell id="lcPfN1VdlQ4DA5JSOHc2-29" value="" style="rounded=0;whiteSpace=wrap;html=1;fillColor=none;strokeWidth=3;fontSize=20;fontColor=#ffffff;strokeColor=#005700;" vertex="1" parent="1">
          <mxGeometry x="280" y="-120" width="370" height="140" as="geometry" />
        </mxCell>
        <mxCell id="lcPfN1VdlQ4DA5JSOHc2-30" value="Aplicació" style="rounded=0;whiteSpace=wrap;html=1;fillColor=#60a917;fontColor=#ffffff;strokeColor=#2D7600;fontSize=20;" vertex="1" parent="1">
          <mxGeometry x="520" y="-90" width="120" height="40" as="geometry" />
        </mxCell>
        <mxCell id="lcPfN1VdlQ4DA5JSOHc2-31" value="Llibreria del Sistema" style="rounded=0;whiteSpace=wrap;html=1;fillColor=#60a917;fontColor=#ffffff;strokeColor=#2D7600;fontSize=20;" vertex="1" parent="1">
          <mxGeometry x="520" y="-50" width="120" height="60" as="geometry" />
        </mxCell>
        <mxCell id="lcPfN1VdlQ4DA5JSOHc2-33" value="Client de correu" style="rounded=1;whiteSpace=wrap;html=1;fillColor=#d5e8d4;strokeColor=#82b366;fontSize=20;" vertex="1" parent="1">
          <mxGeometry x="290" y="-110" width="100" height="60" as="geometry" />
        </mxCell>
        <mxCell id="lcPfN1VdlQ4DA5JSOHc2-34" value="Navegador" style="rounded=1;whiteSpace=wrap;html=1;fillColor=#d5e8d4;strokeColor=#82b366;fontSize=20;" vertex="1" parent="1">
          <mxGeometry x="393.75" y="-102.5" width="110" height="45" as="geometry" />
        </mxCell>
        <mxCell id="lcPfN1VdlQ4DA5JSOHc2-35" value="Reproductor músical" style="rounded=1;whiteSpace=wrap;html=1;fillColor=#d5e8d4;strokeColor=#82b366;fontSize=20;" vertex="1" parent="1">
          <mxGeometry x="370" y="-40" width="120" height="53" as="geometry" />
        </mxCell>
        <mxCell id="lcPfN1VdlQ4DA5JSOHc2-36" value="Shell" style="rounded=1;whiteSpace=wrap;html=1;fillColor=#d5e8d4;strokeColor=#82b366;fontSize=20;" vertex="1" parent="1">
          <mxGeometry x="290" y="-33" width="70" height="33" as="geometry" />
        </mxCell>
      </root>
    </mxGraphModel>
  </diagram>
  <diagram id="DvnqxzvVtoGhtfpb6Si7" name="roles">
    <mxGraphModel dx="1420" dy="893" grid="1" gridSize="10" guides="1" tooltips="1" connect="1" arrows="1" fold="1" page="1" pageScale="1" pageWidth="827" pageHeight="1169" math="0" shadow="0">
      <root>
        <mxCell id="0" />
        <mxCell id="1" parent="0" />
        <mxCell id="euU9d23oLGR1xE3uMtUu-12" value="" style="html=1;shadow=0;dashed=0;align=center;verticalAlign=middle;shape=mxgraph.arrows2.arrow;dy=0;dx=0;notch=30;rounded=0;strokeColor=#A50040;strokeWidth=1;fillColor=#d80073;fontFamily=Fire Sans;fontSize=10;fontColor=#ffffff;gradientDirection=east;" parent="1" vertex="1">
          <mxGeometry x="390" y="220" width="1230" height="180" as="geometry" />
        </mxCell>
        <mxCell id="euU9d23oLGR1xE3uMtUu-28" value="&lt;h1 style=&quot;font-size: 24px;&quot;&gt;Il.lusionista&lt;/h1&gt;&lt;p style=&quot;font-size: 24px;&quot;&gt;&lt;/p&gt;&lt;ul style=&quot;font-size: 18px;&quot;&gt;&lt;li&gt;Proporciona abstraccions fàcils d’utilitzar dels recursos físics.&lt;/li&gt;&lt;li&gt;Proporciona una abstracció que l’aplicació tingui un ús exclusiu dels recursos.&lt;/li&gt;&lt;li&gt;Proporciona una abstracció que els recursos de maquinari són infinits.&lt;/li&gt;&lt;li&gt;Proporciona l’abstracció de les capacitats del maquinari que no estan presents físicament&lt;/li&gt;&lt;/ul&gt;&lt;p style=&quot;font-size: 24px;&quot;&gt;&lt;/p&gt;" style="text;html=1;strokeColor=none;fillColor=none;spacing=5;spacingTop=-20;whiteSpace=wrap;overflow=hidden;rounded=0;shadow=0;dashed=0;fontFamily=Fire Sans;fontSize=24;fontColor=#FFFFFF;align=left;" parent="1" vertex="1">
          <mxGeometry x="590" y="240" width="1020" height="150" as="geometry" />
        </mxCell>
        <mxCell id="euU9d23oLGR1xE3uMtUu-6" value="" style="verticalLabelPosition=bottom;verticalAlign=top;html=1;strokeWidth=1;shape=mxgraph.basic.orthogonal_triangle;rounded=0;shadow=0;dashed=0;fontFamily=Fire Sans;fontSize=24;fontColor=#FFFFFF;flipV=1;fillColor=#000000;strokeColor=none;opacity=50;" parent="1" vertex="1">
          <mxGeometry x="1370" y="760" width="140" height="40" as="geometry" />
        </mxCell>
        <mxCell id="euU9d23oLGR1xE3uMtUu-13" value="" style="html=1;shadow=0;dashed=0;align=center;verticalAlign=middle;shape=mxgraph.arrows2.arrow;dy=0;dx=0;notch=30;rounded=0;strokeColor=#C73500;strokeWidth=1;fillColor=#fa6800;fontFamily=Fire Sans;fontSize=10;fontColor=#000000;gradientDirection=east;" parent="1" vertex="1">
          <mxGeometry x="390" y="400" width="1230" height="180" as="geometry" />
        </mxCell>
        <mxCell id="euU9d23oLGR1xE3uMtUu-14" value="" style="html=1;shadow=0;dashed=0;align=center;verticalAlign=middle;shape=mxgraph.arrows2.arrow;dy=0;dx=0;notch=30;rounded=0;strokeColor=none;strokeWidth=1;fillColor=#8D029D;fontFamily=Fire Sans;fontSize=10;fontColor=#FFFFFF;gradientColor=#65009E;gradientDirection=east;" parent="1" vertex="1">
          <mxGeometry x="390" y="580" width="1230" height="320" as="geometry" />
        </mxCell>
        <mxCell id="euU9d23oLGR1xE3uMtUu-18" value="1" style="text;html=1;strokeColor=none;fillColor=none;align=right;verticalAlign=middle;whiteSpace=wrap;rounded=0;shadow=0;dashed=0;fontFamily=Fire Sans;fontSize=150;fontColor=#FFFFFF;" parent="1" vertex="1">
          <mxGeometry x="450" y="220" width="80" height="180" as="geometry" />
        </mxCell>
        <mxCell id="euU9d23oLGR1xE3uMtUu-19" value="2" style="text;html=1;strokeColor=none;fillColor=none;align=right;verticalAlign=middle;whiteSpace=wrap;rounded=0;shadow=0;dashed=0;fontFamily=Fire Sans;fontSize=150;fontColor=#FFFFFF;" parent="1" vertex="1">
          <mxGeometry x="440" y="400" width="80" height="180" as="geometry" />
        </mxCell>
        <mxCell id="euU9d23oLGR1xE3uMtUu-20" value="3" style="text;html=1;strokeColor=none;fillColor=none;align=right;verticalAlign=middle;whiteSpace=wrap;rounded=0;shadow=0;dashed=0;fontFamily=Fire Sans;fontSize=150;fontColor=#FFFFFF;" parent="1" vertex="1">
          <mxGeometry x="440" y="660" width="90" height="180" as="geometry" />
        </mxCell>
        <mxCell id="euU9d23oLGR1xE3uMtUu-23" value="" style="line;strokeWidth=4;direction=south;html=1;rounded=0;shadow=0;dashed=0;fillColor=none;gradientColor=#AD0002;fontFamily=Fire Sans;fontSize=150;fontColor=#FFFFFF;align=right;strokeColor=#FFFFFF;" parent="1" vertex="1">
          <mxGeometry x="550" y="230" width="10" height="160" as="geometry" />
        </mxCell>
        <mxCell id="euU9d23oLGR1xE3uMtUu-24" value="" style="line;strokeWidth=4;direction=south;html=1;rounded=0;shadow=0;dashed=0;fillColor=none;gradientColor=#AD0002;fontFamily=Fire Sans;fontSize=150;fontColor=#FFFFFF;align=right;strokeColor=#FFFFFF;" parent="1" vertex="1">
          <mxGeometry x="540" y="410" width="10" height="160" as="geometry" />
        </mxCell>
        <mxCell id="euU9d23oLGR1xE3uMtUu-25" value="" style="line;strokeWidth=4;direction=south;html=1;rounded=0;shadow=0;dashed=0;fillColor=none;gradientColor=#AD0002;fontFamily=Fire Sans;fontSize=150;fontColor=#FFFFFF;align=right;strokeColor=#FFFFFF;" parent="1" vertex="1">
          <mxGeometry x="540" y="590" width="10" height="300" as="geometry" />
        </mxCell>
        <mxCell id="euU9d23oLGR1xE3uMtUu-29" value="&lt;h1 style=&quot;font-size: 24px;&quot;&gt;Àrbitre&lt;/h1&gt;&lt;div style=&quot;font-size: 18px;&quot;&gt;&lt;ul style=&quot;&quot;&gt;&lt;li style=&quot;&quot;&gt;Assignació de recursos&lt;/li&gt;&lt;li style=&quot;&quot;&gt;Protecció&lt;/li&gt;&lt;li style=&quot;&quot;&gt;Aïllament&lt;/li&gt;&lt;/ul&gt;&lt;/div&gt;" style="text;html=1;strokeColor=none;fillColor=none;spacing=5;spacingTop=-20;whiteSpace=wrap;overflow=hidden;rounded=0;shadow=0;dashed=0;fontFamily=Fire Sans;fontSize=24;fontColor=#FFFFFF;align=left;" parent="1" vertex="1">
          <mxGeometry x="580" y="420" width="670" height="140" as="geometry" />
        </mxCell>
        <mxCell id="euU9d23oLGR1xE3uMtUu-30" value="&lt;h1 style=&quot;font-size: 24px;&quot;&gt;Pega&lt;/h1&gt;&lt;div style=&quot;&quot;&gt;&lt;ul style=&quot;border-color: var(--border-color);&quot;&gt;&lt;li style=&quot;border-color: var(--border-color);&quot;&gt;&lt;font style=&quot;font-size: 18px;&quot;&gt;Proporciona un conjunt de serveis comuns.&lt;/font&gt;&lt;/li&gt;&lt;/ul&gt;&lt;/div&gt;" style="text;html=1;strokeColor=none;fillColor=none;spacing=5;spacingTop=-20;whiteSpace=wrap;overflow=hidden;rounded=0;shadow=0;dashed=0;fontFamily=Fire Sans;fontSize=24;fontColor=#FFFFFF;align=left;" parent="1" vertex="1">
          <mxGeometry x="580" y="600" width="670" height="110" as="geometry" />
        </mxCell>
        <mxCell id="euU9d23oLGR1xE3uMtUu-44" value="&amp;nbsp; &lt;b&gt;&lt;u&gt;Reutilització&lt;/u&gt;&lt;/b&gt;&lt;div&gt;&lt;ul&gt;&lt;li&gt;&lt;span style=&quot;&quot;&gt;Evitar tornar a implementar funcionalitats.&lt;/span&gt;&lt;/li&gt;&lt;li style=&quot;&quot;&gt;Permet evolució independent dels components&lt;/li&gt;&lt;/ul&gt;&lt;/div&gt;" style="rounded=1;whiteSpace=wrap;html=1;fillColor=#e1d5e7;strokeColor=#9673a6;fontSize=24;rotation=0;align=left;fontFamily=Fire Sans;" parent="1" vertex="1">
          <mxGeometry x="1150" y="645" width="440" height="210" as="geometry" />
        </mxCell>
        <mxCell id="euU9d23oLGR1xE3uMtUu-48" value="&lt;div&gt;&lt;b&gt;&amp;nbsp;&amp;nbsp;&lt;/b&gt;&lt;b style=&quot;background-color: initial;&quot;&gt;&lt;u&gt;Compartició&lt;/u&gt;&lt;/b&gt;&lt;/div&gt;&lt;ul&gt;&lt;li&gt;Simplifica els sistemes, ja que s&#39;assumeixen sempre les mateixes primitives bàsiques&lt;/li&gt;&lt;/ul&gt;" style="rounded=1;whiteSpace=wrap;html=1;fillColor=#fad9d5;strokeColor=#ae4132;fontSize=24;align=left;fontFamily=Fire Sans;" parent="1" vertex="1">
          <mxGeometry x="570" y="710" width="520" height="150" as="geometry" />
        </mxCell>
      </root>
    </mxGraphModel>
  </diagram>
  <diagram id="JXv49f9pyBoTp81ij3UK" name="prog_A_executing">
    <mxGraphModel dx="2247" dy="893" grid="1" gridSize="10" guides="1" tooltips="1" connect="1" arrows="1" fold="1" page="1" pageScale="1" pageWidth="827" pageHeight="1169" math="0" shadow="0">
      <root>
        <mxCell id="0" />
        <mxCell id="1" parent="0" />
        <mxCell id="Wj9LbmWMZqF-rn1lrLOP-33" value="" style="shape=flexArrow;endArrow=classic;html=1;rounded=0;exitX=0.5;exitY=1;exitDx=0;exitDy=0;entryX=0.5;entryY=1;entryDx=0;entryDy=0;fillColor=#e51400;strokeColor=#B20000;startArrow=block;" edge="1" parent="1">
          <mxGeometry width="50" height="50" relative="1" as="geometry">
            <mxPoint x="458.75" y="522.5" as="sourcePoint" />
            <mxPoint x="458.75" y="237.5" as="targetPoint" />
            <Array as="points">
              <mxPoint x="123.75" y="355" />
            </Array>
          </mxGeometry>
        </mxCell>
        <mxCell id="d7tJvN3nZEuJjCPh7ASv-1" value="" style="rounded=0;whiteSpace=wrap;html=1;fillColor=none;strokeWidth=3;fontSize=20;fontColor=#ffffff;strokeColor=#005700;" vertex="1" parent="1">
          <mxGeometry x="-361.25" y="140" width="480" height="430" as="geometry" />
        </mxCell>
        <mxCell id="d7tJvN3nZEuJjCPh7ASv-2" value="./prog&amp;nbsp; H" style="swimlane;horizontal=0;whiteSpace=wrap;html=1;fontSize=20;rotation=90;fillColor=#1ba1e2;fontColor=#ffffff;strokeColor=#006EAF;" vertex="1" parent="1">
          <mxGeometry x="-371.25" y="335" width="240" height="200" as="geometry" />
        </mxCell>
        <mxCell id="d7tJvN3nZEuJjCPh7ASv-3" value="Threads" style="rounded=0;whiteSpace=wrap;html=1;fillColor=#dae8fc;strokeColor=#6c8ebf;fontSize=20;" vertex="1" parent="d7tJvN3nZEuJjCPh7ASv-2">
          <mxGeometry x="30" y="20" width="170" height="30" as="geometry" />
        </mxCell>
        <mxCell id="d7tJvN3nZEuJjCPh7ASv-4" value="Fitxers" style="rounded=0;whiteSpace=wrap;html=1;fillColor=#dae8fc;strokeColor=#6c8ebf;fontSize=20;" vertex="1" parent="d7tJvN3nZEuJjCPh7ASv-2">
          <mxGeometry x="30" y="60" width="170" height="30" as="geometry" />
        </mxCell>
        <mxCell id="d7tJvN3nZEuJjCPh7ASv-5" value="id" style="rounded=0;whiteSpace=wrap;html=1;fillColor=#dae8fc;strokeColor=#6c8ebf;fontSize=20;" vertex="1" parent="d7tJvN3nZEuJjCPh7ASv-2">
          <mxGeometry x="30" y="180" width="170" height="30" as="geometry" />
        </mxCell>
        <mxCell id="d7tJvN3nZEuJjCPh7ASv-6" value="Sockets" style="rounded=0;whiteSpace=wrap;html=1;fillColor=#dae8fc;strokeColor=#6c8ebf;fontSize=20;" vertex="1" parent="d7tJvN3nZEuJjCPh7ASv-2">
          <mxGeometry x="30" y="100" width="170" height="30" as="geometry" />
        </mxCell>
        <mxCell id="d7tJvN3nZEuJjCPh7ASv-7" value="Espai d&#39;Adreces" style="rounded=0;whiteSpace=wrap;html=1;fillColor=#dae8fc;strokeColor=#6c8ebf;fontSize=20;" vertex="1" parent="d7tJvN3nZEuJjCPh7ASv-2">
          <mxGeometry x="30" y="140" width="170" height="30" as="geometry" />
        </mxCell>
        <mxCell id="d7tJvN3nZEuJjCPh7ASv-8" value="./prog O" style="swimlane;horizontal=0;whiteSpace=wrap;html=1;fontSize=20;rotation=90;fillColor=#60a917;fontColor=#ffffff;strokeColor=#2D7600;" vertex="1" parent="1">
          <mxGeometry x="-121.25" y="330" width="240" height="210" as="geometry">
            <mxRectangle x="390" y="135" width="50" height="120" as="alternateBounds" />
          </mxGeometry>
        </mxCell>
        <mxCell id="d7tJvN3nZEuJjCPh7ASv-9" value="Threads" style="rounded=0;whiteSpace=wrap;html=1;fillColor=#d5e8d4;strokeColor=#82b366;fontSize=20;" vertex="1" parent="d7tJvN3nZEuJjCPh7ASv-8">
          <mxGeometry x="35" y="25" width="170" height="30" as="geometry" />
        </mxCell>
        <mxCell id="d7tJvN3nZEuJjCPh7ASv-10" value="Fitxers" style="rounded=0;whiteSpace=wrap;html=1;fillColor=#d5e8d4;strokeColor=#82b366;fontSize=20;" vertex="1" parent="d7tJvN3nZEuJjCPh7ASv-8">
          <mxGeometry x="35" y="65" width="170" height="30" as="geometry" />
        </mxCell>
        <mxCell id="d7tJvN3nZEuJjCPh7ASv-11" value="Sockets" style="rounded=0;whiteSpace=wrap;html=1;fillColor=#d5e8d4;strokeColor=#82b366;fontSize=20;" vertex="1" parent="d7tJvN3nZEuJjCPh7ASv-8">
          <mxGeometry x="35" y="105" width="170" height="30" as="geometry" />
        </mxCell>
        <mxCell id="d7tJvN3nZEuJjCPh7ASv-12" value="Espai d&#39;Adreces" style="rounded=0;whiteSpace=wrap;html=1;fillColor=#d5e8d4;strokeColor=#82b366;fontSize=20;" vertex="1" parent="d7tJvN3nZEuJjCPh7ASv-8">
          <mxGeometry x="35" y="145" width="170" height="30" as="geometry" />
        </mxCell>
        <mxCell id="d7tJvN3nZEuJjCPh7ASv-13" value="id" style="rounded=0;whiteSpace=wrap;html=1;fillColor=#d5e8d4;strokeColor=#82b366;fontSize=20;" vertex="1" parent="d7tJvN3nZEuJjCPh7ASv-8">
          <mxGeometry x="35" y="180" width="170" height="30" as="geometry" />
        </mxCell>
        <mxCell id="d7tJvN3nZEuJjCPh7ASv-14" style="edgeStyle=orthogonalEdgeStyle;rounded=0;orthogonalLoop=1;jettySize=auto;html=1;entryX=0.038;entryY=0.522;entryDx=0;entryDy=0;entryPerimeter=0;" edge="1" parent="1" source="d7tJvN3nZEuJjCPh7ASv-15" target="d7tJvN3nZEuJjCPh7ASv-18">
          <mxGeometry relative="1" as="geometry" />
        </mxCell>
        <mxCell id="d7tJvN3nZEuJjCPh7ASv-15" value="prog.c" style="shape=note;whiteSpace=wrap;html=1;backgroundOutline=1;darkOpacity=0.05;fontSize=20;fillColor=#d80073;fontColor=#ffffff;strokeColor=#A50040;" vertex="1" parent="1">
          <mxGeometry x="-245" y="155" width="80" height="110" as="geometry" />
        </mxCell>
        <mxCell id="d7tJvN3nZEuJjCPh7ASv-16" style="edgeStyle=orthogonalEdgeStyle;rounded=0;orthogonalLoop=1;jettySize=auto;html=1;entryX=0;entryY=0.5;entryDx=0;entryDy=0;" edge="1" parent="1" source="d7tJvN3nZEuJjCPh7ASv-18" target="d7tJvN3nZEuJjCPh7ASv-2">
          <mxGeometry relative="1" as="geometry">
            <Array as="points">
              <mxPoint x="48.75" y="208" />
              <mxPoint x="48.75" y="290" />
              <mxPoint x="-251.25" y="290" />
            </Array>
          </mxGeometry>
        </mxCell>
        <mxCell id="d7tJvN3nZEuJjCPh7ASv-17" style="edgeStyle=orthogonalEdgeStyle;rounded=0;orthogonalLoop=1;jettySize=auto;html=1;exitX=0.5;exitY=1;exitDx=0;exitDy=0;exitPerimeter=0;entryX=0;entryY=0.5;entryDx=0;entryDy=0;" edge="1" parent="1" source="d7tJvN3nZEuJjCPh7ASv-18" target="d7tJvN3nZEuJjCPh7ASv-8">
          <mxGeometry relative="1" as="geometry">
            <Array as="points">
              <mxPoint x="48.75" y="265" />
              <mxPoint x="48.75" y="290" />
              <mxPoint x="-1.25" y="290" />
            </Array>
          </mxGeometry>
        </mxCell>
        <mxCell id="d7tJvN3nZEuJjCPh7ASv-18" value="prog" style="shape=card;whiteSpace=wrap;html=1;fontSize=20;fillColor=#f0a30a;fontColor=#000000;strokeColor=#BD7000;" vertex="1" parent="1">
          <mxGeometry x="-55" y="150" width="100" height="115" as="geometry" />
        </mxCell>
        <mxCell id="d7tJvN3nZEuJjCPh7ASv-19" value="Llibreries" style="rounded=0;whiteSpace=wrap;html=1;fontSize=20;fillColor=#e3c800;fontColor=#000000;strokeColor=#B09500;rotation=-90;" vertex="1" parent="1">
          <mxGeometry x="3.75" y="191.25" width="115" height="32.5" as="geometry" />
        </mxCell>
        <mxCell id="d7tJvN3nZEuJjCPh7ASv-20" value="" style="rounded=0;whiteSpace=wrap;html=1;fillColor=none;strokeWidth=3;fontSize=20;fontColor=#000000;strokeColor=#B09500;rotation=90;" vertex="1" parent="1">
          <mxGeometry x="347.2" y="226.55999999999995" width="433.12" height="254" as="geometry" />
        </mxCell>
        <mxCell id="d7tJvN3nZEuJjCPh7ASv-21" value="Proceador (1 core)" style="sketch=0;pointerEvents=1;shadow=0;dashed=0;html=1;strokeColor=none;fillColor=#434445;aspect=fixed;labelPosition=center;verticalLabelPosition=bottom;verticalAlign=top;align=center;outlineConnect=0;shape=mxgraph.vvd.cpu;fontSize=20;rotation=90;" vertex="1" parent="1">
          <mxGeometry x="628.75" y="225" width="50" height="50" as="geometry" />
        </mxCell>
        <mxCell id="d7tJvN3nZEuJjCPh7ASv-22" value="Hardware" style="text;html=1;strokeColor=none;fillColor=none;align=center;verticalAlign=middle;whiteSpace=wrap;rounded=0;rotation=0;fontSize=20;fontColor=#b09500;" vertex="1" parent="1">
          <mxGeometry x="458.75" y="140" width="85" height="30" as="geometry" />
        </mxCell>
        <mxCell id="d7tJvN3nZEuJjCPh7ASv-23" value="Memòria" style="sketch=0;pointerEvents=1;shadow=0;dashed=0;html=1;strokeColor=none;fillColor=#434445;aspect=fixed;labelPosition=center;verticalLabelPosition=bottom;verticalAlign=top;align=center;outlineConnect=0;shape=mxgraph.vvd.memory;rotation=90;fontSize=20;" vertex="1" parent="1">
          <mxGeometry x="598.75" y="447.38" width="99" height="37.62" as="geometry" />
        </mxCell>
        <mxCell id="d7tJvN3nZEuJjCPh7ASv-24" value="A" style="swimlane;horizontal=0;whiteSpace=wrap;html=1;fontSize=20;rotation=90;fillColor=#1ba1e2;fontColor=#ffffff;strokeColor=#006EAF;" vertex="1" parent="1">
          <mxGeometry x="498.75" y="480" width="45" height="115" as="geometry" />
        </mxCell>
        <mxCell id="d7tJvN3nZEuJjCPh7ASv-25" value="B" style="swimlane;horizontal=0;whiteSpace=wrap;html=1;fontSize=20;rotation=90;fillColor=#60a917;fontColor=#ffffff;strokeColor=#2D7600;" vertex="1" parent="1">
          <mxGeometry x="498.75" y="425" width="45" height="115" as="geometry" />
        </mxCell>
        <mxCell id="d7tJvN3nZEuJjCPh7ASv-26" value="OS&amp;nbsp;" style="swimlane;horizontal=0;whiteSpace=wrap;html=1;fontSize=20;rotation=90;fillColor=#d80073;fontColor=#ffffff;strokeColor=#A50040;startSize=23;" vertex="1" parent="1">
          <mxGeometry x="498.75" y="365" width="45" height="115" as="geometry" />
        </mxCell>
        <mxCell id="d7tJvN3nZEuJjCPh7ASv-27" value="" style="rounded=0;whiteSpace=wrap;html=1;fillColor=none;strokeWidth=3;fontSize=20;fontColor=#ffffff;strokeColor=#B20000;" vertex="1" parent="1">
          <mxGeometry x="128.75" y="140" width="300" height="430" as="geometry" />
        </mxCell>
        <mxCell id="d7tJvN3nZEuJjCPh7ASv-28" value="Kernel" style="text;html=1;strokeColor=none;fillColor=none;align=center;verticalAlign=middle;whiteSpace=wrap;rounded=0;rotation=-90;fontSize=20;fontColor=#b20400;" vertex="1" parent="1">
          <mxGeometry x="369.75" y="165" width="85" height="30" as="geometry" />
        </mxCell>
        <mxCell id="d7tJvN3nZEuJjCPh7ASv-29" value="compilador" style="text;html=1;strokeColor=none;fillColor=none;align=center;verticalAlign=middle;whiteSpace=wrap;rounded=0;fontSize=20;" vertex="1" parent="1">
          <mxGeometry x="-155" y="180" width="90" height="30" as="geometry" />
        </mxCell>
        <mxCell id="d7tJvN3nZEuJjCPh7ASv-30" value="execució" style="text;html=1;strokeColor=none;fillColor=none;align=center;verticalAlign=middle;whiteSpace=wrap;rounded=0;fontSize=20;rotation=90;" vertex="1" parent="1">
          <mxGeometry x="-171.25" y="365" width="90" height="30" as="geometry" />
        </mxCell>
        <mxCell id="d7tJvN3nZEuJjCPh7ASv-31" value="Usuari" style="text;html=1;strokeColor=none;fillColor=none;align=center;verticalAlign=middle;whiteSpace=wrap;rounded=0;rotation=-90;fontSize=20;fontColor=#165700;" vertex="1" parent="1">
          <mxGeometry x="-381.25" y="180" width="85" height="30" as="geometry" />
        </mxCell>
        <mxCell id="d7tJvN3nZEuJjCPh7ASv-32" value="" style="group;rotation=-90;" vertex="1" connectable="0" parent="1">
          <mxGeometry x="168.75" y="300" width="350" height="100" as="geometry" />
        </mxCell>
        <mxCell id="d7tJvN3nZEuJjCPh7ASv-33" value="&lt;div style=&quot;font-size: 20px;&quot;&gt;Capa d&#39;abstracció de maquinari&lt;/div&gt;" style="rounded=0;whiteSpace=wrap;html=1;fillColor=#dae8fc;strokeWidth=3;strokeColor=#6c8ebf;verticalAlign=top;fontSize=20;rotation=-90;" vertex="1" parent="d7tJvN3nZEuJjCPh7ASv-32">
          <mxGeometry width="350" height="100" as="geometry" />
        </mxCell>
        <mxCell id="d7tJvN3nZEuJjCPh7ASv-34" value="Programari i controladors de dispositiu específics de maquinari" style="rounded=1;whiteSpace=wrap;html=1;fillColor=#1ba1e2;fontColor=#ffffff;strokeColor=#006EAF;fontSize=20;rotation=-90;" vertex="1" parent="d7tJvN3nZEuJjCPh7ASv-32">
          <mxGeometry x="24" y="24" width="330" height="52" as="geometry" />
        </mxCell>
        <mxCell id="d7tJvN3nZEuJjCPh7ASv-35" value="" style="group;rotation=-90;fillColor=#a20025;fontColor=#ffffff;strokeColor=#6F0000;" vertex="1" connectable="0" parent="1">
          <mxGeometry x="38.75" y="290" width="350" height="120" as="geometry" />
        </mxCell>
        <mxCell id="d7tJvN3nZEuJjCPh7ASv-36" value="&lt;div style=&quot;font-size: 20px;&quot;&gt;Interfície d&#39;usuari del Kernel&lt;/div&gt;" style="rounded=0;whiteSpace=wrap;html=1;fillColor=#ffe6cc;strokeWidth=3;strokeColor=#d79b00;verticalAlign=top;fontSize=20;rotation=-90;" vertex="1" parent="d7tJvN3nZEuJjCPh7ASv-35">
          <mxGeometry width="350" height="120" as="geometry" />
        </mxCell>
        <mxCell id="d7tJvN3nZEuJjCPh7ASv-37" value="Sistema de fitxers" style="rounded=1;whiteSpace=wrap;html=1;fillColor=#f0a30a;fontColor=#000000;strokeColor=#BD7000;fontSize=20;rotation=-90;" vertex="1" parent="d7tJvN3nZEuJjCPh7ASv-35">
          <mxGeometry x="72" y="112" width="190" height="36" as="geometry" />
        </mxCell>
        <mxCell id="d7tJvN3nZEuJjCPh7ASv-38" value="Memòria Virtual" style="rounded=1;whiteSpace=wrap;html=1;fillColor=#f0a30a;fontColor=#000000;strokeColor=#BD7000;fontSize=20;rotation=-90;" vertex="1" parent="d7tJvN3nZEuJjCPh7ASv-35">
          <mxGeometry x="113" y="112" width="190" height="36" as="geometry" />
        </mxCell>
        <mxCell id="d7tJvN3nZEuJjCPh7ASv-39" value="Planificador" style="rounded=1;whiteSpace=wrap;html=1;fillColor=#e51400;fontColor=#ffffff;strokeColor=#B20000;fontSize=20;rotation=-90;" vertex="1" parent="d7tJvN3nZEuJjCPh7ASv-35">
          <mxGeometry x="102" y="-58" width="130" height="36" as="geometry" />
        </mxCell>
        <mxCell id="d7tJvN3nZEuJjCPh7ASv-40" value="TCP/IP" style="rounded=1;whiteSpace=wrap;html=1;fillColor=#f0a30a;fontColor=#000000;strokeColor=#BD7000;fontSize=20;rotation=-90;" vertex="1" parent="d7tJvN3nZEuJjCPh7ASv-35">
          <mxGeometry x="143" y="-58" width="130" height="36" as="geometry" />
        </mxCell>
        <mxCell id="d7tJvN3nZEuJjCPh7ASv-43" value="enllaçador" style="text;html=1;strokeColor=none;fillColor=none;align=center;verticalAlign=middle;whiteSpace=wrap;rounded=0;fontSize=20;" vertex="1" parent="1">
          <mxGeometry x="-165" y="210" width="110" height="35" as="geometry" />
        </mxCell>
        <mxCell id="d7tJvN3nZEuJjCPh7ASv-46" value="A" style="swimlane;horizontal=0;whiteSpace=wrap;html=1;fontSize=20;rotation=90;fillColor=#1ba1e2;fontColor=#ffffff;strokeColor=#006EAF;" vertex="1" parent="1">
          <mxGeometry x="500" y="185" width="45" height="115" as="geometry" />
        </mxCell>
      </root>
    </mxGraphModel>
  </diagram>
  <diagram name="prog_B_executing" id="x2Aetg6flrJvesvv6JWr">
    <mxGraphModel dx="2247" dy="893" grid="1" gridSize="10" guides="1" tooltips="1" connect="1" arrows="1" fold="1" page="1" pageScale="1" pageWidth="827" pageHeight="1169" math="0" shadow="0">
      <root>
        <mxCell id="8jEwRIBSJ6R7aOufkoeU-0" />
        <mxCell id="8jEwRIBSJ6R7aOufkoeU-1" parent="8jEwRIBSJ6R7aOufkoeU-0" />
        <mxCell id="tLcBYYD-4UnDt5xWUgOK-0" value="" style="shape=flexArrow;endArrow=classic;html=1;rounded=0;exitX=0.5;exitY=1;exitDx=0;exitDy=0;entryX=0.5;entryY=1;entryDx=0;entryDy=0;fillColor=#e51400;strokeColor=#B20000;startArrow=block;" edge="1" parent="8jEwRIBSJ6R7aOufkoeU-1">
          <mxGeometry width="50" height="50" relative="1" as="geometry">
            <mxPoint x="458.75" y="932.5" as="sourcePoint" />
            <mxPoint x="458.75" y="647.5" as="targetPoint" />
            <Array as="points">
              <mxPoint x="123.75" y="765" />
            </Array>
          </mxGeometry>
        </mxCell>
        <mxCell id="tLcBYYD-4UnDt5xWUgOK-1" value="" style="rounded=0;whiteSpace=wrap;html=1;fillColor=none;strokeWidth=3;fontSize=20;fontColor=#ffffff;strokeColor=#005700;" vertex="1" parent="8jEwRIBSJ6R7aOufkoeU-1">
          <mxGeometry x="-361.25" y="550" width="480" height="430" as="geometry" />
        </mxCell>
        <mxCell id="tLcBYYD-4UnDt5xWUgOK-2" value="./prog&amp;nbsp; H" style="swimlane;horizontal=0;whiteSpace=wrap;html=1;fontSize=20;rotation=90;fillColor=#1ba1e2;fontColor=#ffffff;strokeColor=#006EAF;" vertex="1" parent="8jEwRIBSJ6R7aOufkoeU-1">
          <mxGeometry x="-371.25" y="745" width="240" height="200" as="geometry" />
        </mxCell>
        <mxCell id="tLcBYYD-4UnDt5xWUgOK-3" value="Threads" style="rounded=0;whiteSpace=wrap;html=1;fillColor=#dae8fc;strokeColor=#6c8ebf;fontSize=20;" vertex="1" parent="tLcBYYD-4UnDt5xWUgOK-2">
          <mxGeometry x="30" y="20" width="170" height="30" as="geometry" />
        </mxCell>
        <mxCell id="tLcBYYD-4UnDt5xWUgOK-4" value="Fitxers" style="rounded=0;whiteSpace=wrap;html=1;fillColor=#dae8fc;strokeColor=#6c8ebf;fontSize=20;" vertex="1" parent="tLcBYYD-4UnDt5xWUgOK-2">
          <mxGeometry x="30" y="60" width="170" height="30" as="geometry" />
        </mxCell>
        <mxCell id="tLcBYYD-4UnDt5xWUgOK-5" value="id" style="rounded=0;whiteSpace=wrap;html=1;fillColor=#dae8fc;strokeColor=#6c8ebf;fontSize=20;" vertex="1" parent="tLcBYYD-4UnDt5xWUgOK-2">
          <mxGeometry x="30" y="180" width="170" height="30" as="geometry" />
        </mxCell>
        <mxCell id="tLcBYYD-4UnDt5xWUgOK-6" value="Sockets" style="rounded=0;whiteSpace=wrap;html=1;fillColor=#dae8fc;strokeColor=#6c8ebf;fontSize=20;" vertex="1" parent="tLcBYYD-4UnDt5xWUgOK-2">
          <mxGeometry x="30" y="100" width="170" height="30" as="geometry" />
        </mxCell>
        <mxCell id="tLcBYYD-4UnDt5xWUgOK-7" value="Espai d&#39;Adreces" style="rounded=0;whiteSpace=wrap;html=1;fillColor=#dae8fc;strokeColor=#6c8ebf;fontSize=20;" vertex="1" parent="tLcBYYD-4UnDt5xWUgOK-2">
          <mxGeometry x="30" y="140" width="170" height="30" as="geometry" />
        </mxCell>
        <mxCell id="tLcBYYD-4UnDt5xWUgOK-8" value="./prog O" style="swimlane;horizontal=0;whiteSpace=wrap;html=1;fontSize=20;rotation=90;fillColor=#60a917;fontColor=#ffffff;strokeColor=#2D7600;" vertex="1" parent="8jEwRIBSJ6R7aOufkoeU-1">
          <mxGeometry x="-121.25" y="740" width="240" height="210" as="geometry">
            <mxRectangle x="390" y="135" width="50" height="120" as="alternateBounds" />
          </mxGeometry>
        </mxCell>
        <mxCell id="tLcBYYD-4UnDt5xWUgOK-9" value="Threads" style="rounded=0;whiteSpace=wrap;html=1;fillColor=#d5e8d4;strokeColor=#82b366;fontSize=20;" vertex="1" parent="tLcBYYD-4UnDt5xWUgOK-8">
          <mxGeometry x="35" y="25" width="170" height="30" as="geometry" />
        </mxCell>
        <mxCell id="tLcBYYD-4UnDt5xWUgOK-10" value="Fitxers" style="rounded=0;whiteSpace=wrap;html=1;fillColor=#d5e8d4;strokeColor=#82b366;fontSize=20;" vertex="1" parent="tLcBYYD-4UnDt5xWUgOK-8">
          <mxGeometry x="35" y="65" width="170" height="30" as="geometry" />
        </mxCell>
        <mxCell id="tLcBYYD-4UnDt5xWUgOK-11" value="Sockets" style="rounded=0;whiteSpace=wrap;html=1;fillColor=#d5e8d4;strokeColor=#82b366;fontSize=20;" vertex="1" parent="tLcBYYD-4UnDt5xWUgOK-8">
          <mxGeometry x="35" y="105" width="170" height="30" as="geometry" />
        </mxCell>
        <mxCell id="tLcBYYD-4UnDt5xWUgOK-12" value="Espai d&#39;Adreces" style="rounded=0;whiteSpace=wrap;html=1;fillColor=#d5e8d4;strokeColor=#82b366;fontSize=20;" vertex="1" parent="tLcBYYD-4UnDt5xWUgOK-8">
          <mxGeometry x="35" y="145" width="170" height="30" as="geometry" />
        </mxCell>
        <mxCell id="tLcBYYD-4UnDt5xWUgOK-13" value="id" style="rounded=0;whiteSpace=wrap;html=1;fillColor=#d5e8d4;strokeColor=#82b366;fontSize=20;" vertex="1" parent="tLcBYYD-4UnDt5xWUgOK-8">
          <mxGeometry x="35" y="180" width="170" height="30" as="geometry" />
        </mxCell>
        <mxCell id="tLcBYYD-4UnDt5xWUgOK-14" style="edgeStyle=orthogonalEdgeStyle;rounded=0;orthogonalLoop=1;jettySize=auto;html=1;entryX=0.038;entryY=0.522;entryDx=0;entryDy=0;entryPerimeter=0;" edge="1" parent="8jEwRIBSJ6R7aOufkoeU-1" source="tLcBYYD-4UnDt5xWUgOK-15" target="tLcBYYD-4UnDt5xWUgOK-18">
          <mxGeometry relative="1" as="geometry" />
        </mxCell>
        <mxCell id="tLcBYYD-4UnDt5xWUgOK-15" value="prog.c" style="shape=note;whiteSpace=wrap;html=1;backgroundOutline=1;darkOpacity=0.05;fontSize=20;fillColor=#d80073;fontColor=#ffffff;strokeColor=#A50040;" vertex="1" parent="8jEwRIBSJ6R7aOufkoeU-1">
          <mxGeometry x="-245" y="565" width="80" height="110" as="geometry" />
        </mxCell>
        <mxCell id="tLcBYYD-4UnDt5xWUgOK-16" style="edgeStyle=orthogonalEdgeStyle;rounded=0;orthogonalLoop=1;jettySize=auto;html=1;entryX=0;entryY=0.5;entryDx=0;entryDy=0;" edge="1" parent="8jEwRIBSJ6R7aOufkoeU-1" source="tLcBYYD-4UnDt5xWUgOK-18" target="tLcBYYD-4UnDt5xWUgOK-2">
          <mxGeometry relative="1" as="geometry">
            <Array as="points">
              <mxPoint x="48.75" y="618" />
              <mxPoint x="48.75" y="700" />
              <mxPoint x="-251.25" y="700" />
            </Array>
          </mxGeometry>
        </mxCell>
        <mxCell id="tLcBYYD-4UnDt5xWUgOK-17" style="edgeStyle=orthogonalEdgeStyle;rounded=0;orthogonalLoop=1;jettySize=auto;html=1;exitX=0.5;exitY=1;exitDx=0;exitDy=0;exitPerimeter=0;entryX=0;entryY=0.5;entryDx=0;entryDy=0;" edge="1" parent="8jEwRIBSJ6R7aOufkoeU-1" source="tLcBYYD-4UnDt5xWUgOK-18" target="tLcBYYD-4UnDt5xWUgOK-8">
          <mxGeometry relative="1" as="geometry">
            <Array as="points">
              <mxPoint x="48.75" y="675" />
              <mxPoint x="48.75" y="700" />
              <mxPoint x="-1.25" y="700" />
            </Array>
          </mxGeometry>
        </mxCell>
        <mxCell id="tLcBYYD-4UnDt5xWUgOK-18" value="prog" style="shape=card;whiteSpace=wrap;html=1;fontSize=20;fillColor=#f0a30a;fontColor=#000000;strokeColor=#BD7000;" vertex="1" parent="8jEwRIBSJ6R7aOufkoeU-1">
          <mxGeometry x="-55" y="560" width="100" height="115" as="geometry" />
        </mxCell>
        <mxCell id="tLcBYYD-4UnDt5xWUgOK-19" value="Llibreries" style="rounded=0;whiteSpace=wrap;html=1;fontSize=20;fillColor=#e3c800;fontColor=#000000;strokeColor=#B09500;rotation=-90;" vertex="1" parent="8jEwRIBSJ6R7aOufkoeU-1">
          <mxGeometry x="3.75" y="601.25" width="115" height="32.5" as="geometry" />
        </mxCell>
        <mxCell id="tLcBYYD-4UnDt5xWUgOK-20" value="" style="rounded=0;whiteSpace=wrap;html=1;fillColor=none;strokeWidth=3;fontSize=20;fontColor=#000000;strokeColor=#B09500;rotation=90;" vertex="1" parent="8jEwRIBSJ6R7aOufkoeU-1">
          <mxGeometry x="347.2" y="636.56" width="433.12" height="254" as="geometry" />
        </mxCell>
        <mxCell id="tLcBYYD-4UnDt5xWUgOK-21" value="Proceador (1 core)" style="sketch=0;pointerEvents=1;shadow=0;dashed=0;html=1;strokeColor=none;fillColor=#434445;aspect=fixed;labelPosition=center;verticalLabelPosition=bottom;verticalAlign=top;align=center;outlineConnect=0;shape=mxgraph.vvd.cpu;fontSize=20;rotation=90;" vertex="1" parent="8jEwRIBSJ6R7aOufkoeU-1">
          <mxGeometry x="628.75" y="635" width="50" height="50" as="geometry" />
        </mxCell>
        <mxCell id="tLcBYYD-4UnDt5xWUgOK-22" value="Hardware" style="text;html=1;strokeColor=none;fillColor=none;align=center;verticalAlign=middle;whiteSpace=wrap;rounded=0;rotation=0;fontSize=20;fontColor=#b09500;" vertex="1" parent="8jEwRIBSJ6R7aOufkoeU-1">
          <mxGeometry x="458.75" y="550" width="85" height="30" as="geometry" />
        </mxCell>
        <mxCell id="tLcBYYD-4UnDt5xWUgOK-23" value="Memòria" style="sketch=0;pointerEvents=1;shadow=0;dashed=0;html=1;strokeColor=none;fillColor=#434445;aspect=fixed;labelPosition=center;verticalLabelPosition=bottom;verticalAlign=top;align=center;outlineConnect=0;shape=mxgraph.vvd.memory;rotation=90;fontSize=20;" vertex="1" parent="8jEwRIBSJ6R7aOufkoeU-1">
          <mxGeometry x="598.75" y="857.38" width="99" height="37.62" as="geometry" />
        </mxCell>
        <mxCell id="tLcBYYD-4UnDt5xWUgOK-24" value="A" style="swimlane;horizontal=0;whiteSpace=wrap;html=1;fontSize=20;rotation=90;fillColor=#1ba1e2;fontColor=#ffffff;strokeColor=#006EAF;" vertex="1" parent="8jEwRIBSJ6R7aOufkoeU-1">
          <mxGeometry x="498.75" y="890" width="45" height="115" as="geometry" />
        </mxCell>
        <mxCell id="tLcBYYD-4UnDt5xWUgOK-25" value="B" style="swimlane;horizontal=0;whiteSpace=wrap;html=1;fontSize=20;rotation=90;fillColor=#60a917;fontColor=#ffffff;strokeColor=#2D7600;" vertex="1" parent="8jEwRIBSJ6R7aOufkoeU-1">
          <mxGeometry x="498.75" y="835" width="45" height="115" as="geometry" />
        </mxCell>
        <mxCell id="tLcBYYD-4UnDt5xWUgOK-26" value="OS&amp;nbsp;" style="swimlane;horizontal=0;whiteSpace=wrap;html=1;fontSize=20;rotation=90;fillColor=#d80073;fontColor=#ffffff;strokeColor=#A50040;startSize=23;" vertex="1" parent="8jEwRIBSJ6R7aOufkoeU-1">
          <mxGeometry x="498.75" y="775" width="45" height="115" as="geometry" />
        </mxCell>
        <mxCell id="tLcBYYD-4UnDt5xWUgOK-27" value="" style="rounded=0;whiteSpace=wrap;html=1;fillColor=none;strokeWidth=3;fontSize=20;fontColor=#ffffff;strokeColor=#B20000;" vertex="1" parent="8jEwRIBSJ6R7aOufkoeU-1">
          <mxGeometry x="128.75" y="550" width="300" height="430" as="geometry" />
        </mxCell>
        <mxCell id="tLcBYYD-4UnDt5xWUgOK-28" value="Kernel" style="text;html=1;strokeColor=none;fillColor=none;align=center;verticalAlign=middle;whiteSpace=wrap;rounded=0;rotation=-90;fontSize=20;fontColor=#b20400;" vertex="1" parent="8jEwRIBSJ6R7aOufkoeU-1">
          <mxGeometry x="369.75" y="575" width="85" height="30" as="geometry" />
        </mxCell>
        <mxCell id="tLcBYYD-4UnDt5xWUgOK-29" value="compilador" style="text;html=1;strokeColor=none;fillColor=none;align=center;verticalAlign=middle;whiteSpace=wrap;rounded=0;fontSize=20;" vertex="1" parent="8jEwRIBSJ6R7aOufkoeU-1">
          <mxGeometry x="-155" y="590" width="90" height="30" as="geometry" />
        </mxCell>
        <mxCell id="tLcBYYD-4UnDt5xWUgOK-30" value="execució" style="text;html=1;strokeColor=none;fillColor=none;align=center;verticalAlign=middle;whiteSpace=wrap;rounded=0;fontSize=20;rotation=90;" vertex="1" parent="8jEwRIBSJ6R7aOufkoeU-1">
          <mxGeometry x="-171.25" y="775" width="90" height="30" as="geometry" />
        </mxCell>
        <mxCell id="tLcBYYD-4UnDt5xWUgOK-31" value="Usuari" style="text;html=1;strokeColor=none;fillColor=none;align=center;verticalAlign=middle;whiteSpace=wrap;rounded=0;rotation=-90;fontSize=20;fontColor=#165700;" vertex="1" parent="8jEwRIBSJ6R7aOufkoeU-1">
          <mxGeometry x="-381.25" y="590" width="85" height="30" as="geometry" />
        </mxCell>
        <mxCell id="tLcBYYD-4UnDt5xWUgOK-32" value="" style="group;rotation=-90;" vertex="1" connectable="0" parent="8jEwRIBSJ6R7aOufkoeU-1">
          <mxGeometry x="168.75" y="710" width="350" height="100" as="geometry" />
        </mxCell>
        <mxCell id="tLcBYYD-4UnDt5xWUgOK-33" value="&lt;div style=&quot;font-size: 20px;&quot;&gt;Capa d&#39;abstracció de maquinari&lt;/div&gt;" style="rounded=0;whiteSpace=wrap;html=1;fillColor=#dae8fc;strokeWidth=3;strokeColor=#6c8ebf;verticalAlign=top;fontSize=20;rotation=-90;" vertex="1" parent="tLcBYYD-4UnDt5xWUgOK-32">
          <mxGeometry width="350" height="100" as="geometry" />
        </mxCell>
        <mxCell id="tLcBYYD-4UnDt5xWUgOK-34" value="Programari i controladors de dispositiu específics de maquinari" style="rounded=1;whiteSpace=wrap;html=1;fillColor=#1ba1e2;fontColor=#ffffff;strokeColor=#006EAF;fontSize=20;rotation=-90;" vertex="1" parent="tLcBYYD-4UnDt5xWUgOK-32">
          <mxGeometry x="24" y="24" width="330" height="52" as="geometry" />
        </mxCell>
        <mxCell id="tLcBYYD-4UnDt5xWUgOK-35" value="" style="group;rotation=-90;fillColor=#a20025;fontColor=#ffffff;strokeColor=#6F0000;" vertex="1" connectable="0" parent="8jEwRIBSJ6R7aOufkoeU-1">
          <mxGeometry x="38.75" y="700" width="350" height="120" as="geometry" />
        </mxCell>
        <mxCell id="tLcBYYD-4UnDt5xWUgOK-36" value="&lt;div style=&quot;font-size: 20px;&quot;&gt;Interfície d&#39;usuari del Kernel&lt;/div&gt;" style="rounded=0;whiteSpace=wrap;html=1;fillColor=#ffe6cc;strokeWidth=3;strokeColor=#d79b00;verticalAlign=top;fontSize=20;rotation=-90;" vertex="1" parent="tLcBYYD-4UnDt5xWUgOK-35">
          <mxGeometry width="350" height="120" as="geometry" />
        </mxCell>
        <mxCell id="tLcBYYD-4UnDt5xWUgOK-37" value="Sistema de fitxers" style="rounded=1;whiteSpace=wrap;html=1;fillColor=#f0a30a;fontColor=#000000;strokeColor=#BD7000;fontSize=20;rotation=-90;" vertex="1" parent="tLcBYYD-4UnDt5xWUgOK-35">
          <mxGeometry x="72" y="112" width="190" height="36" as="geometry" />
        </mxCell>
        <mxCell id="tLcBYYD-4UnDt5xWUgOK-38" value="Memòria Virtual" style="rounded=1;whiteSpace=wrap;html=1;fillColor=#f0a30a;fontColor=#000000;strokeColor=#BD7000;fontSize=20;rotation=-90;" vertex="1" parent="tLcBYYD-4UnDt5xWUgOK-35">
          <mxGeometry x="113" y="112" width="190" height="36" as="geometry" />
        </mxCell>
        <mxCell id="tLcBYYD-4UnDt5xWUgOK-39" value="Planificador" style="rounded=1;whiteSpace=wrap;html=1;fillColor=#e51400;fontColor=#ffffff;strokeColor=#B20000;fontSize=20;rotation=-90;" vertex="1" parent="tLcBYYD-4UnDt5xWUgOK-35">
          <mxGeometry x="102" y="-58" width="130" height="36" as="geometry" />
        </mxCell>
        <mxCell id="tLcBYYD-4UnDt5xWUgOK-40" value="TCP/IP" style="rounded=1;whiteSpace=wrap;html=1;fillColor=#f0a30a;fontColor=#000000;strokeColor=#BD7000;fontSize=20;rotation=-90;" vertex="1" parent="tLcBYYD-4UnDt5xWUgOK-35">
          <mxGeometry x="143" y="-58" width="130" height="36" as="geometry" />
        </mxCell>
        <mxCell id="tLcBYYD-4UnDt5xWUgOK-41" value="enllaçador" style="text;html=1;strokeColor=none;fillColor=none;align=center;verticalAlign=middle;whiteSpace=wrap;rounded=0;fontSize=20;" vertex="1" parent="8jEwRIBSJ6R7aOufkoeU-1">
          <mxGeometry x="-165" y="620" width="110" height="35" as="geometry" />
        </mxCell>
        <mxCell id="tLcBYYD-4UnDt5xWUgOK-43" value="B" style="swimlane;horizontal=0;whiteSpace=wrap;html=1;fontSize=20;rotation=90;fillColor=#60a917;fontColor=#ffffff;strokeColor=#2D7600;" vertex="1" parent="8jEwRIBSJ6R7aOufkoeU-1">
          <mxGeometry x="498.75" y="590" width="45" height="115" as="geometry" />
        </mxCell>
      </root>
    </mxGraphModel>
  </diagram>
  <diagram name="prog_A_B_Memory" id="87bwo4MulgXpbBGuu8eL">
    <mxGraphModel dx="2247" dy="893" grid="1" gridSize="10" guides="1" tooltips="1" connect="1" arrows="1" fold="1" page="1" pageScale="1" pageWidth="827" pageHeight="1169" math="0" shadow="0">
      <root>
        <mxCell id="rhgmcE0kvtBPSzoIP70n-0" />
        <mxCell id="rhgmcE0kvtBPSzoIP70n-1" parent="rhgmcE0kvtBPSzoIP70n-0" />
        <mxCell id="rhgmcE0kvtBPSzoIP70n-33" value="" style="rounded=0;whiteSpace=wrap;html=1;fillColor=none;strokeWidth=3;fontSize=20;fontColor=#ffffff;strokeColor=#005700;" vertex="1" parent="rhgmcE0kvtBPSzoIP70n-1">
          <mxGeometry x="-360" y="20" width="480" height="500" as="geometry" />
        </mxCell>
        <mxCell id="rhgmcE0kvtBPSzoIP70n-2" value="./prog&amp;nbsp; H" style="swimlane;horizontal=0;whiteSpace=wrap;html=1;fontSize=20;rotation=90;fillColor=#1ba1e2;fontColor=#ffffff;strokeColor=#006EAF;" vertex="1" parent="rhgmcE0kvtBPSzoIP70n-1">
          <mxGeometry x="-370" y="215" width="240" height="200" as="geometry" />
        </mxCell>
        <mxCell id="rhgmcE0kvtBPSzoIP70n-3" value="Threads" style="rounded=0;whiteSpace=wrap;html=1;fillColor=#dae8fc;strokeColor=#6c8ebf;fontSize=20;" vertex="1" parent="rhgmcE0kvtBPSzoIP70n-2">
          <mxGeometry x="30" y="20" width="170" height="30" as="geometry" />
        </mxCell>
        <mxCell id="rhgmcE0kvtBPSzoIP70n-4" value="Fitxers" style="rounded=0;whiteSpace=wrap;html=1;fillColor=#dae8fc;strokeColor=#6c8ebf;fontSize=20;" vertex="1" parent="rhgmcE0kvtBPSzoIP70n-2">
          <mxGeometry x="30" y="60" width="170" height="30" as="geometry" />
        </mxCell>
        <mxCell id="rhgmcE0kvtBPSzoIP70n-5" value="id" style="rounded=0;whiteSpace=wrap;html=1;fillColor=#dae8fc;strokeColor=#6c8ebf;fontSize=20;" vertex="1" parent="rhgmcE0kvtBPSzoIP70n-2">
          <mxGeometry x="30" y="180" width="170" height="30" as="geometry" />
        </mxCell>
        <mxCell id="rhgmcE0kvtBPSzoIP70n-6" value="Sockets" style="rounded=0;whiteSpace=wrap;html=1;fillColor=#dae8fc;strokeColor=#6c8ebf;fontSize=20;" vertex="1" parent="rhgmcE0kvtBPSzoIP70n-2">
          <mxGeometry x="30" y="100" width="170" height="30" as="geometry" />
        </mxCell>
        <mxCell id="rhgmcE0kvtBPSzoIP70n-7" value="Espai d&#39;Adreces" style="rounded=0;whiteSpace=wrap;html=1;fillColor=#dae8fc;strokeColor=#6c8ebf;fontSize=20;" vertex="1" parent="rhgmcE0kvtBPSzoIP70n-2">
          <mxGeometry x="30" y="140" width="170" height="30" as="geometry" />
        </mxCell>
        <mxCell id="rhgmcE0kvtBPSzoIP70n-8" value="./prog O" style="swimlane;horizontal=0;whiteSpace=wrap;html=1;fontSize=20;rotation=90;fillColor=#60a917;fontColor=#ffffff;strokeColor=#2D7600;" vertex="1" parent="rhgmcE0kvtBPSzoIP70n-1">
          <mxGeometry x="-120" y="210" width="240" height="210" as="geometry">
            <mxRectangle x="390" y="135" width="50" height="120" as="alternateBounds" />
          </mxGeometry>
        </mxCell>
        <mxCell id="rhgmcE0kvtBPSzoIP70n-9" value="Threads" style="rounded=0;whiteSpace=wrap;html=1;fillColor=#d5e8d4;strokeColor=#82b366;fontSize=20;" vertex="1" parent="rhgmcE0kvtBPSzoIP70n-8">
          <mxGeometry x="35" y="25" width="170" height="30" as="geometry" />
        </mxCell>
        <mxCell id="rhgmcE0kvtBPSzoIP70n-10" value="Fitxers" style="rounded=0;whiteSpace=wrap;html=1;fillColor=#d5e8d4;strokeColor=#82b366;fontSize=20;" vertex="1" parent="rhgmcE0kvtBPSzoIP70n-8">
          <mxGeometry x="35" y="65" width="170" height="30" as="geometry" />
        </mxCell>
        <mxCell id="rhgmcE0kvtBPSzoIP70n-11" value="Sockets" style="rounded=0;whiteSpace=wrap;html=1;fillColor=#d5e8d4;strokeColor=#82b366;fontSize=20;" vertex="1" parent="rhgmcE0kvtBPSzoIP70n-8">
          <mxGeometry x="35" y="105" width="170" height="30" as="geometry" />
        </mxCell>
        <mxCell id="rhgmcE0kvtBPSzoIP70n-12" value="Espai d&#39;Adreces" style="rounded=0;whiteSpace=wrap;html=1;fillColor=#d5e8d4;strokeColor=#82b366;fontSize=20;" vertex="1" parent="rhgmcE0kvtBPSzoIP70n-8">
          <mxGeometry x="35" y="145" width="170" height="30" as="geometry" />
        </mxCell>
        <mxCell id="rhgmcE0kvtBPSzoIP70n-13" value="id" style="rounded=0;whiteSpace=wrap;html=1;fillColor=#d5e8d4;strokeColor=#82b366;fontSize=20;" vertex="1" parent="rhgmcE0kvtBPSzoIP70n-8">
          <mxGeometry x="35" y="180" width="170" height="30" as="geometry" />
        </mxCell>
        <mxCell id="qDJxXBEL1wKe5Sjd54d1-4" style="edgeStyle=orthogonalEdgeStyle;rounded=0;orthogonalLoop=1;jettySize=auto;html=1;entryX=0.038;entryY=0.522;entryDx=0;entryDy=0;entryPerimeter=0;" edge="1" parent="rhgmcE0kvtBPSzoIP70n-1" source="rhgmcE0kvtBPSzoIP70n-15" target="rhgmcE0kvtBPSzoIP70n-18">
          <mxGeometry relative="1" as="geometry" />
        </mxCell>
        <mxCell id="rhgmcE0kvtBPSzoIP70n-15" value="prog.c" style="shape=note;whiteSpace=wrap;html=1;backgroundOutline=1;darkOpacity=0.05;fontSize=20;fillColor=#d80073;fontColor=#ffffff;strokeColor=#A50040;" vertex="1" parent="rhgmcE0kvtBPSzoIP70n-1">
          <mxGeometry x="-243.75" y="35" width="80" height="110" as="geometry" />
        </mxCell>
        <mxCell id="rhgmcE0kvtBPSzoIP70n-16" style="edgeStyle=orthogonalEdgeStyle;rounded=0;orthogonalLoop=1;jettySize=auto;html=1;entryX=0;entryY=0.5;entryDx=0;entryDy=0;" edge="1" parent="rhgmcE0kvtBPSzoIP70n-1" source="rhgmcE0kvtBPSzoIP70n-18" target="rhgmcE0kvtBPSzoIP70n-2">
          <mxGeometry relative="1" as="geometry">
            <Array as="points">
              <mxPoint x="50" y="88" />
              <mxPoint x="50" y="170" />
              <mxPoint x="-250" y="170" />
            </Array>
          </mxGeometry>
        </mxCell>
        <mxCell id="rhgmcE0kvtBPSzoIP70n-17" style="edgeStyle=orthogonalEdgeStyle;rounded=0;orthogonalLoop=1;jettySize=auto;html=1;exitX=0.5;exitY=1;exitDx=0;exitDy=0;exitPerimeter=0;entryX=0;entryY=0.5;entryDx=0;entryDy=0;" edge="1" parent="rhgmcE0kvtBPSzoIP70n-1" source="rhgmcE0kvtBPSzoIP70n-18" target="rhgmcE0kvtBPSzoIP70n-8">
          <mxGeometry relative="1" as="geometry">
            <Array as="points">
              <mxPoint x="50" y="145" />
              <mxPoint x="50" y="170" />
              <mxPoint y="170" />
            </Array>
          </mxGeometry>
        </mxCell>
        <mxCell id="rhgmcE0kvtBPSzoIP70n-18" value="prog" style="shape=card;whiteSpace=wrap;html=1;fontSize=20;fillColor=#f0a30a;fontColor=#000000;strokeColor=#BD7000;" vertex="1" parent="rhgmcE0kvtBPSzoIP70n-1">
          <mxGeometry x="-53.75" y="30" width="100" height="115" as="geometry" />
        </mxCell>
        <mxCell id="rhgmcE0kvtBPSzoIP70n-19" value="Llibreries" style="rounded=0;whiteSpace=wrap;html=1;fontSize=20;fillColor=#e3c800;fontColor=#000000;strokeColor=#B09500;rotation=-90;" vertex="1" parent="rhgmcE0kvtBPSzoIP70n-1">
          <mxGeometry x="5" y="71.25" width="115" height="32.5" as="geometry" />
        </mxCell>
        <mxCell id="rhgmcE0kvtBPSzoIP70n-20" value="" style="rounded=0;whiteSpace=wrap;html=1;fillColor=none;strokeWidth=3;fontSize=20;fontColor=#000000;strokeColor=#B09500;rotation=90;" vertex="1" parent="rhgmcE0kvtBPSzoIP70n-1">
          <mxGeometry x="317.5" y="144.5" width="495" height="254" as="geometry" />
        </mxCell>
        <mxCell id="rhgmcE0kvtBPSzoIP70n-21" value="Proceador (1 core)" style="sketch=0;pointerEvents=1;shadow=0;dashed=0;html=1;strokeColor=none;fillColor=#434445;aspect=fixed;labelPosition=center;verticalLabelPosition=bottom;verticalAlign=top;align=center;outlineConnect=0;shape=mxgraph.vvd.cpu;fontSize=20;rotation=90;" vertex="1" parent="rhgmcE0kvtBPSzoIP70n-1">
          <mxGeometry x="630" y="105" width="50" height="50" as="geometry" />
        </mxCell>
        <mxCell id="rhgmcE0kvtBPSzoIP70n-22" value="Hardware" style="text;html=1;strokeColor=none;fillColor=none;align=center;verticalAlign=middle;whiteSpace=wrap;rounded=0;rotation=0;fontSize=20;fontColor=#b09500;" vertex="1" parent="rhgmcE0kvtBPSzoIP70n-1">
          <mxGeometry x="460" y="20" width="85" height="30" as="geometry" />
        </mxCell>
        <mxCell id="rhgmcE0kvtBPSzoIP70n-23" value="Memòria" style="sketch=0;pointerEvents=1;shadow=0;dashed=0;html=1;strokeColor=none;fillColor=#434445;aspect=fixed;labelPosition=center;verticalLabelPosition=bottom;verticalAlign=top;align=center;outlineConnect=0;shape=mxgraph.vvd.memory;rotation=90;fontSize=20;" vertex="1" parent="rhgmcE0kvtBPSzoIP70n-1">
          <mxGeometry x="600" y="327.38" width="99" height="37.62" as="geometry" />
        </mxCell>
        <mxCell id="rhgmcE0kvtBPSzoIP70n-24" value="A" style="swimlane;horizontal=0;whiteSpace=wrap;html=1;fontSize=20;rotation=90;fillColor=#1ba1e2;fontColor=#ffffff;strokeColor=#006EAF;" vertex="1" parent="rhgmcE0kvtBPSzoIP70n-1">
          <mxGeometry x="500" y="360" width="45" height="115" as="geometry" />
        </mxCell>
        <mxCell id="rhgmcE0kvtBPSzoIP70n-25" value="B" style="swimlane;horizontal=0;whiteSpace=wrap;html=1;fontSize=20;rotation=90;fillColor=#60a917;fontColor=#ffffff;strokeColor=#2D7600;" vertex="1" parent="rhgmcE0kvtBPSzoIP70n-1">
          <mxGeometry x="500" y="305" width="45" height="115" as="geometry" />
        </mxCell>
        <mxCell id="rhgmcE0kvtBPSzoIP70n-26" value="OS&amp;nbsp;" style="swimlane;horizontal=0;whiteSpace=wrap;html=1;fontSize=20;rotation=90;fillColor=#d80073;fontColor=#ffffff;strokeColor=#A50040;startSize=23;" vertex="1" parent="rhgmcE0kvtBPSzoIP70n-1">
          <mxGeometry x="500" y="245" width="45" height="115" as="geometry" />
        </mxCell>
        <mxCell id="rhgmcE0kvtBPSzoIP70n-28" value="" style="rounded=0;whiteSpace=wrap;html=1;fillColor=none;strokeWidth=3;fontSize=20;fontColor=#ffffff;strokeColor=#B20000;" vertex="1" parent="rhgmcE0kvtBPSzoIP70n-1">
          <mxGeometry x="130" y="20" width="300" height="500" as="geometry" />
        </mxCell>
        <mxCell id="rhgmcE0kvtBPSzoIP70n-29" value="Kernel" style="text;html=1;strokeColor=none;fillColor=none;align=center;verticalAlign=middle;whiteSpace=wrap;rounded=0;rotation=-90;fontSize=20;fontColor=#b20400;" vertex="1" parent="rhgmcE0kvtBPSzoIP70n-1">
          <mxGeometry x="371" y="45" width="85" height="30" as="geometry" />
        </mxCell>
        <mxCell id="rhgmcE0kvtBPSzoIP70n-30" value="compilador" style="text;html=1;strokeColor=none;fillColor=none;align=center;verticalAlign=middle;whiteSpace=wrap;rounded=0;fontSize=20;" vertex="1" parent="rhgmcE0kvtBPSzoIP70n-1">
          <mxGeometry x="-153.75" y="60" width="90" height="30" as="geometry" />
        </mxCell>
        <mxCell id="rhgmcE0kvtBPSzoIP70n-31" value="execució" style="text;html=1;strokeColor=none;fillColor=none;align=center;verticalAlign=middle;whiteSpace=wrap;rounded=0;fontSize=20;rotation=90;" vertex="1" parent="rhgmcE0kvtBPSzoIP70n-1">
          <mxGeometry x="-170" y="245" width="90" height="30" as="geometry" />
        </mxCell>
        <mxCell id="rhgmcE0kvtBPSzoIP70n-32" value="Usuari" style="text;html=1;strokeColor=none;fillColor=none;align=center;verticalAlign=middle;whiteSpace=wrap;rounded=0;rotation=-90;fontSize=20;fontColor=#165700;" vertex="1" parent="rhgmcE0kvtBPSzoIP70n-1">
          <mxGeometry x="-380" y="60" width="85" height="30" as="geometry" />
        </mxCell>
        <mxCell id="rhgmcE0kvtBPSzoIP70n-34" value="" style="group;rotation=-90;" vertex="1" connectable="0" parent="rhgmcE0kvtBPSzoIP70n-1">
          <mxGeometry x="170" y="180" width="350" height="100" as="geometry" />
        </mxCell>
        <mxCell id="rhgmcE0kvtBPSzoIP70n-35" value="&lt;div style=&quot;font-size: 20px;&quot;&gt;Capa d&#39;abstracció de maquinari&lt;/div&gt;" style="rounded=0;whiteSpace=wrap;html=1;fillColor=#dae8fc;strokeWidth=3;strokeColor=#6c8ebf;verticalAlign=top;fontSize=20;rotation=-90;" vertex="1" parent="rhgmcE0kvtBPSzoIP70n-34">
          <mxGeometry width="350" height="100" as="geometry" />
        </mxCell>
        <mxCell id="rhgmcE0kvtBPSzoIP70n-36" value="Programari i controladors de dispositiu específics de maquinari" style="rounded=1;whiteSpace=wrap;html=1;fillColor=#1ba1e2;fontColor=#ffffff;strokeColor=#006EAF;fontSize=20;rotation=-90;" vertex="1" parent="rhgmcE0kvtBPSzoIP70n-34">
          <mxGeometry x="24" y="24" width="330" height="52" as="geometry" />
        </mxCell>
        <mxCell id="rhgmcE0kvtBPSzoIP70n-37" value="" style="group;rotation=-90;" vertex="1" connectable="0" parent="rhgmcE0kvtBPSzoIP70n-1">
          <mxGeometry x="40" y="170" width="350" height="120" as="geometry" />
        </mxCell>
        <mxCell id="rhgmcE0kvtBPSzoIP70n-38" value="&lt;div style=&quot;font-size: 20px;&quot;&gt;Interfície d&#39;usuari del Kernel&lt;/div&gt;" style="rounded=0;whiteSpace=wrap;html=1;fillColor=#ffe6cc;strokeWidth=3;strokeColor=#d79b00;verticalAlign=top;fontSize=20;rotation=-90;" vertex="1" parent="rhgmcE0kvtBPSzoIP70n-37">
          <mxGeometry width="350" height="120" as="geometry" />
        </mxCell>
        <mxCell id="rhgmcE0kvtBPSzoIP70n-39" value="Sistema de fitxers" style="rounded=1;whiteSpace=wrap;html=1;fillColor=#f0a30a;fontColor=#000000;strokeColor=#BD7000;fontSize=20;rotation=-90;" vertex="1" parent="rhgmcE0kvtBPSzoIP70n-37">
          <mxGeometry x="72" y="112" width="190" height="36" as="geometry" />
        </mxCell>
        <mxCell id="rhgmcE0kvtBPSzoIP70n-40" value="Memòria Virtual" style="rounded=1;whiteSpace=wrap;html=1;fillColor=#f0a30a;fontColor=#000000;strokeColor=#BD7000;fontSize=20;rotation=-90;" vertex="1" parent="rhgmcE0kvtBPSzoIP70n-37">
          <mxGeometry x="113" y="112" width="190" height="36" as="geometry" />
        </mxCell>
        <mxCell id="rhgmcE0kvtBPSzoIP70n-41" value="Planificador" style="rounded=1;whiteSpace=wrap;html=1;fillColor=#f0a30a;fontColor=#000000;strokeColor=#BD7000;fontSize=20;rotation=-90;" vertex="1" parent="rhgmcE0kvtBPSzoIP70n-37">
          <mxGeometry x="102" y="-58" width="130" height="36" as="geometry" />
        </mxCell>
        <mxCell id="rhgmcE0kvtBPSzoIP70n-42" value="TCP/IP" style="rounded=1;whiteSpace=wrap;html=1;fillColor=#f0a30a;fontColor=#000000;strokeColor=#BD7000;fontSize=20;rotation=-90;" vertex="1" parent="rhgmcE0kvtBPSzoIP70n-37">
          <mxGeometry x="143" y="-58" width="130" height="36" as="geometry" />
        </mxCell>
        <mxCell id="Nv5e4O-LBbwl3gJqWQ3I-3" value="" style="shape=flexArrow;endArrow=classic;html=1;rounded=0;fillColor=#e51400;strokeColor=#B20000;exitX=0.5;exitY=1;exitDx=0;exitDy=0;" edge="1" parent="rhgmcE0kvtBPSzoIP70n-1" source="qDJxXBEL1wKe5Sjd54d1-6">
          <mxGeometry width="50" height="50" relative="1" as="geometry">
            <mxPoint x="-260" y="440" as="sourcePoint" />
            <mxPoint x="520" y="440" as="targetPoint" />
            <Array as="points">
              <mxPoint x="-260" y="500" />
              <mxPoint x="150" y="500" />
              <mxPoint x="370" y="500" />
              <mxPoint x="440" y="500" />
              <mxPoint x="520" y="500" />
            </Array>
          </mxGeometry>
        </mxCell>
        <mxCell id="Nv5e4O-LBbwl3gJqWQ3I-4" value="" style="shape=flexArrow;endArrow=classic;html=1;rounded=0;entryX=0.5;entryY=1;entryDx=0;entryDy=0;fillColor=#e51400;strokeColor=#B20000;exitX=1;exitY=0.5;exitDx=0;exitDy=0;" edge="1" parent="rhgmcE0kvtBPSzoIP70n-1">
          <mxGeometry width="50" height="50" relative="1" as="geometry">
            <mxPoint x="66.25" y="462.5" as="sourcePoint" />
            <mxPoint x="465" y="365" as="targetPoint" />
            <Array as="points">
              <mxPoint x="130" y="462.5" />
              <mxPoint x="270" y="462.5" />
              <mxPoint x="410" y="462.5" />
              <mxPoint x="410" y="365.5" />
            </Array>
          </mxGeometry>
        </mxCell>
        <mxCell id="qDJxXBEL1wKe5Sjd54d1-0" value="enllaçador" style="text;html=1;strokeColor=none;fillColor=none;align=center;verticalAlign=middle;whiteSpace=wrap;rounded=0;fontSize=20;" vertex="1" parent="rhgmcE0kvtBPSzoIP70n-1">
          <mxGeometry x="-163.75" y="90" width="110" height="35" as="geometry" />
        </mxCell>
        <mxCell id="qDJxXBEL1wKe5Sjd54d1-6" value="Procés A" style="rounded=0;whiteSpace=wrap;html=1;fillColor=#1ba1e2;fontColor=#ffffff;strokeColor=#006EAF;fontSize=20;" vertex="1" parent="rhgmcE0kvtBPSzoIP70n-1">
          <mxGeometry x="-320" y="445" width="120" height="30" as="geometry" />
        </mxCell>
        <mxCell id="qDJxXBEL1wKe5Sjd54d1-8" value="Procés B" style="rounded=0;whiteSpace=wrap;html=1;fillColor=#60a917;fontColor=#ffffff;strokeColor=#2D7600;fontSize=20;" vertex="1" parent="rhgmcE0kvtBPSzoIP70n-1">
          <mxGeometry x="-53.75" y="445" width="120" height="30" as="geometry" />
        </mxCell>
      </root>
    </mxGraphModel>
  </diagram>
</mxfile>
